<svg viewBox="-475 -350 950 700" xmlns="http://www.w3.org/2000/svg">
  <g stroke="#000" stroke-width="5" fill="#dc9">
    <g id="tail">
      <path d="M -325,-100 q -80,0 -80,-80 q -80 80 80,140"/>
    </g>
    <g id="left-legs">
      <rect x="-220" y="205" width="45" height="120"/>
      <rect x="80" y="205" width="45" height="120"/>
    </g>
    <g id="body">
      <ellipse id="body" ry="275" rx="375" cy="0" cx="0"/>
    </g>
    <circle id="head" cx="275" cy="-100" r="175"/>
    <g id="ears">
      <path d="M 330,-280 l 120 20 l -60 75 z"/>
      <path d="M 220,-280 l -120 20 l 60 75 z"/>
    </g>
    <g id="snout">
      <path d="M 235 -100 h 120 a 50 50 0 0 1 0 95 h -120"/>
      <path fill="#000" d="M 340 -75 h 25 l -25 35 l -25 -35 z"/>
      <path d="M 340 -40 q 20 20 30 0"/>
      <path d="M 340 -40 q -20 20 -30 0"/>
    </g>
    <g id="right-legs">
      <rect x="-150" y="190" width="45" height="135"/>
      <rect x="150" y="190" width="45" height="135"/>
    </g>
    <g id="eyes" fill="#fff">
      <circle cx="235" cy="-170" r="40"/>
      <circle cx="235" cy="-170" r="10" fill="#000"/>
      <circle cx="315" cy="-170" r="40"/>
      <circle cx="315" cy="-170" r="10" fill="#000"/>
    </g>
  </g>
</svg>