<svg viewBox="-10 -10 120 120" xmlns="http://www.w3.org/2000/svg" xmlns:svg="http://www.w3.org/2000/svg">
<style type="text/css">
          @keyframes walk {
            0% {
              transform: rotate(-10deg)
            }
            50% {
              transform: rotate(20deg)
            }
            100% {
              transform: rotate(-10deg)
            }
          }
          
          #legs > path {
            transform-box: fill-box;
            transform-origin: 0% 0%;
          }
          
          #legs.walk #bleg1 {
            animation: walk 1s ease infinite reverse;
          }
          
          #legs.walk #bleg2 {
            animation: walk 1s ease 0.35s infinite;
          }
          
          #legs.walk #fleg1 {
            animation: walk 1s ease 0.3s infinite reverse;
          }
          
          #legs.walk #fleg2 {
            animation: walk 1s ease 0.65s infinite;
          }
          .spinner {
            animation: rotator 2.8s linear infinite;
            transform-box: fill-box;
            transform-origin: center;
          }
          @keyframes rotator {
            0% {
              transform: rotate(0deg);
            }
            100% {
              transform: rotate(270deg);
            }
          }
          .path {
            stroke-dasharray: 187;
            stroke-dashoffset: 0;
            transform-box: fill-box;
            transform-origin: center;
            animation: dash 2.8s ease-in-out infinite, colors 5.6s ease-in-out infinite;
          }
          @keyframes colors {
            0% {
              stroke: #4285F4;
            }
            25% {
              stroke: #DE3E35;
            }
            50% {
              stroke: #F7C223;
            }
            75% {
              stroke: #1B9A59;
            }
            100% {
              stroke: #4285F4;
            }
          }
          @keyframes dash {
            0% {
              stroke-dashoffset: 187;
            }
            50% {
              stroke-dashoffset: 46.75;
              transform: rotate(135deg);
            }
            100% {
              stroke-dashoffset: 187;
              transform: rotate(450deg);
            }
          }
        </style>
<g class="spinner">
  <circle class="path" fill="none" stroke-width="6" stroke-linecap="round" cx="50" cy="50" r="55" />
</g>
<g fill-opacity="1" stroke="#000" stroke-width="2">
  <g id="legs" class="walk" stroke-linecap="round">
    <path id="bleg1" d="M30,75l-1.7,9.8" />
    <path id="bleg2" d="M35,75l1.7,9.8" />
    <path id="fleg1" d="M65,75l-1.7,9.8" />
    <path id="fleg2" d="M70,75l1.7,9.8" />
  </g>
  <g id="body" fill="#fff">
    <ellipse cx="50" cy="50" rx="45" ry="30" />
  </g>
  <g id="ears" class="twitch" fill="#fff" stroke-width="1">
    <path id="ear1" d="M53,28a5,3 25 0,0 -6,7z" />
    <path id="ear2" d="M75,28a5,3 -25 0,1 6,7z" />
  </g>
  <g id="eyes" class="blink" fill="#fff" stroke-width="1">
    <ellipse id="eye1" cx="60" cy="35" rx="3" ry="3" />
    <ellipse id="eye2" cx="70" cy="35" rx="3" ry="3" />
  </g>
  <g id="nose" class="wiggle" fill="pink" stroke-width="1">
    <path d="M65,50l-3,-4h6z" />
  </g>
  <g id="mouth" fill-opacity="0" stroke-width="1">
    <path id="lip1" d="M65,50a4,2 0 0,1 -8,0" />
    <path id="lip2" d="M65,50a4,2 0 0,0 8,0" />
  </g>
  <g id="cheeks" class="swell" fill-opacity="0" stroke-width="1">
    <path id="cheek1" d="M50,45a5,5 0 0,0 0,10" />
    <path id="cheek2" d="M80,45a5,5 0 0,1 0,10" />
  </g>
</g>
</svg>