<svg width="640px" height="480px" xmlns="http://www.w3.org/2000/svg">
  <title>
    Hamstr
  </title>
  <g id="group" transform="translate(0,23)">
    <path fill="none" stroke="#000000" stroke-width="5" id="svg_1" d="m144 118c0 0-2.12-1.88 0-4 0.71-0.71 3-2 5-4 2-2 4.19-3.69 6-5 2.29-1.65 2.71-2.35 5-4 1.81-1.31 7.03-1.91 10-3 15.17-5.56 23.85-7.41 29-9 8.81-2.72 18.08-3.35 38-6 6.03-0.8 11.94-1.5 18-2 5.98-0.49 10.05-0.13 18-1 9.16-1.01 16.97-2.5 28-3 9.99-0.45 19 0 38 0 7 0 14.23-0.15 17 1 1.31 0.54 3.18 1.35 8 3 6.35 2.18 12.35 3.92 17 6 4.56 2.04 9.64 4.44 12 6 4.5 2.96 6.92 3.11 14 8 2.97 2.05 4.47 3.78 10 7 4.65 2.71 9.81 1.82 19 9 3.34 2.61 5 5 10 10 2 2 3.87 4.09 6 7 3.78 5.17 4.76 8.13 7 12 1.81 3.12 2.13 4.62 8 12 1.76 2.21 3.08 7.11 4 11 0.51 2.18 2.5 3.94 3 10 0.25 2.99 0 6 0 7 0 1 0.92 5.11 0 9 -0.51 2.18-2.92 9.04-4 11 -2.81 5.11-5.29 7.74-8 11 -12.42 14.93-14 19-19 24 -5 5-12.51 8.39-15 11 -4.02 4.22-20.71 13.35-23 15 -5.44 3.92-13.62 6.64-20 10 -4.77 2.51-12.44 6.77-29 11 -6.85 1.75-11.06 3.2-16 4 -6.24 1.01-12.83 3.57-22 6 -4.93 1.31-22.12 1.73-40 4 -5.06 0.64-12.02 2.38-22 3 -8.05 0.5-15 2-32 2 -6 0-14 0-18 0 -4 0-7 0-11-1 -8-2-10-2-12-4 -3-3-5.05-3.54-7-4 -2.18-0.51-9.88-7.19-13-9 -1.93-1.12-4.69-2.41-8-7 -1.31-1.81-6.08-7.96-7-10 -2.21-4.91-4.57-8.13-6-12 -0.78-2.1-2.99-5.82-4-14 -0.24-1.99-1-5-1-9 0-2-0.49-3.88-1-7 -0.48-2.96-0.49-4.82-1-7 -0.69-2.92 0-5 0-6 0-3 0-8 0-12 0-2 0-3 0-6 0-2 0-4 0-10 0-1 0-3 0-5 0-2 1-3 1-4 0-1-0.32-3.03 0-5 0.51-3.12 1-4 1-5 0-1 0-3 0-7 0-1 0-2 0-3 0-1 0-3 0-5 0-1-1-3-1-4 0-2 0-4 0-6 0-2 0-4 0-6 0-1 0-2 0-4 0-2 0-4 1-6 1-2 1.1-3.82 3-5 0.85-0.53 1.23-1.15 2-3 0.54-1.31 1-2 1-3 0-1 0-2 1-3l0-1 0-1 0-1M312 157"/>
    <path fill="none" stroke="#000000" stroke-width="5" id="svg_2" d="m312 157c0 0 0.18-1.49-2-2 -0.97-0.23-1.19-0.69-3-2 -1.15-0.83-1.77-1.03-2-2 -0.51-2.18-2.46-2.69-3-4 -0.77-1.85-0.49-3.82-1-6 -0.23-0.97 0-2 0-4 0-2 0-3 0-4 0-2 0.62-3.08 1-4 0.54-1.31 2.08-2.62 3-3 1.31-0.54 1.08-2.62 2-3 1.31-0.54 3-1 4-1 1 0 2 0 3 0 2 0 2.69 0.46 4 1 1.85 0.77 3.69 1.46 5 2 0.92 0.38 2.29 1.29 3 2 1.41 1.41 3.15 0.23 5 1 2.61 1.08 3 2 4 2l0 1 1 1 1 2"/>
    <path fill="none" stroke="#000000" stroke-width="5" id="svg_3" d="m371 143c0 0 0-2 0-3 0-2-0.77-3.15 0-5 0.54-1.31 0.69-2.19 2-4 0.83-1.15 1.29-3.29 2-4 0.71-0.71 3 0 5-2 1-1 1.39-1.92 4-3 1.85-0.77 3-1 4-1 1 0 2.05 0.46 4 0 2.18-0.51 3.15-0.23 5-1 1.31-0.54 2-1 4-1 2 0 3 0 4 0 1 0 2 0 3 0 1 0 2 0 2 1 0 1 0 3 0 4 0 2-1 3-2 4 -1 1-1 2-1 3 0 1-1 2-1 3 0 1 0 2 0 3l-1 0"/>
    <path fill="none" stroke="#000000" stroke-width="5" id="svg_4" d="m334 193c0 0 0.17 0.85 1 2 1.31 1.81 1 2 2 4 1 2 1.62 3.08 2 4 1.08 2.61 1.77 4.03 2 5 0.51 2.18 2.46 1.69 3 3 0.77 1.85 1 2 1 3 0 1 0.69 3.19 2 5 0.83 1.15 0.69 3.46 2 4 0.92 0.38 2 0 3 0 1 0 2 0 3 0 2 0 3 0 4 0 1 0 2 0 3-1 1-1 1-2 2-3 1-1 0.69-2.46 2-3 0.92-0.38 1.29-0.29 2-1 1.41-1.41 1-2 2-3 1-1 1-2 1-3 0-1 1.46-1.69 2-3 0.38-0.92 0.62-2.08 1-3 0.54-1.31 1-2 1-3 0-1 0.62-2.08 1-3 0.54-1.31 1.29-2.29 2-3 0.71-0.71 1-2 1-3l0-1 0-1"/>
    <path fill="none" stroke="#000000" stroke-width="5" id="svg_5" d="m354 225c0 0 0 1 0 2 0 1 0 2 0 3 0 1-1.46 0.69-2 2 -0.38 0.92-1.29 0.29-2 1 -0.71 0.71-1.15 1.23-3 2 -1.31 0.54-2 1-3 1 -1 0-3 1-4 1 -2 0-3 1-4 1 -1 0-2 0-4 0 -1 0-2.05-0.54-4-1 -2.18-0.51-1.85-2.17-3-3 -1.81-1.31-2.82-1.1-4-3 -1.05-1.7 0-3 0-4l0-1"/>
    <path fill="none" stroke="#000000" stroke-width="5" id="svg_6" d="m355 226c0 0-0.38 1.08 0 2 0.54 1.31 1.29 2.29 2 3 0.71 0.71 2 1 2 2 0 1 1.03 1.77 2 2 2.18 0.51 4 2 5 2 1 0 3 0 5 0 1 0 1.69-1.46 3-2 0.92-0.38 1.29-1.29 2-2 1.41-1.41 3.82 0.9 5-1 0.53-0.85-0.41-1.59 1-3 1.41-1.41 2.82-1.49 5-2 0.97-0.23 2.62-1.08 3-2 0.54-1.31 1-3 2-3l1 0"/>
    <path fill="none" stroke="#000000" stroke-width="5" id="svg_7" d="m339 157c0 0 0.69-0.46 2-1 0.92-0.38 3 0 4 0 1 0 2 0 3 0 2 0 3.49-0.18 4 2 0.46 1.95 0 3 0 4 0 2 0.38 4.08 0 5 -0.54 1.31-1.29 1.29-2 2 -0.71 0.71-3 1-4 1 -1 0-2 1-3 1 -2 0-1.77-2.03-2-3 -0.51-2.18-2-4-2-6l0-1 0-1 1 0"/>
    <path fill="none" stroke="#000000" stroke-width="5" id="svg_8" d="m369 156c0 0 1.17-0.15 2 1 1.31 1.81 0.23 3.15 1 5 0.54 1.31 1.49 2.82 2 5 0.23 0.97 0.31 2.46-1 3 -1.85 0.77-4 0-5 0 -1 0-3.19 0.31-5-1 -1.15-0.83-2-2-2-4 0-2-1.05-3.3 0-5 1.18-1.9 4-1 6-1l2 0 2 0"/>
    <path d="m336 294c0 0-1 0-1 1 0 1 0 3 0 6 0 2-0.23 4.15-1 6 -0.54 1.31-1.46 2.69-2 4 -0.77 1.85-1.29 2.29-2 3 -1.41 1.41 0.41 3.59-1 5 -0.71 0.71-0.69 1.19-2 3 -0.83 1.15-1 3-1 4l-1 2 -1 1" id="svg_11" stroke-linecap="null" stroke-linejoin="null" stroke-dasharray="null" stroke-width="5" stroke="#000000" fill="none"/>
    <path d="m348 291c0 0 0 2 0 4 0 3 0 5 0 7 0 1 0 3 0 5 0 2 0 3 0 4 0 2 1 4 1 5 0 1 0.17 1.85 1 3 1.31 1.81 0.59 3.59 2 5 0.71 0.71 2 1 3 1l0 1 1 1 0 1" id="svg_12" stroke-linecap="null" stroke-linejoin="null" stroke-dasharray="null" stroke-width="5" stroke="#000000" fill="none"/>
    <path d="m212 306c0 0-1.17 0.85-2 2 -1.31 1.81-1 3-2 4 -1 1-1.69 2.19-3 4 -1.65 2.29-2.82 2.1-4 4 -1.05 1.7-1.46 2.69-2 4 -0.38 0.92 0 2-1 4 -1 2-0.23 4.15-1 6 -0.54 1.31-1 2-1 3l0 1 0 1 0 1" id="svg_13" stroke-linecap="null" stroke-linejoin="null" stroke-dasharray="null" stroke-width="5" stroke="#000000" fill="none"/>
    <path d="m219 308c0 0 0.08 0.62 1 1 1.31 0.54 2 3 2 5 0 1 0.62 1.08 1 2 1.62 3.92 3 4 3 5 0 1 2 2 2 3 0 1 0 2 0 3 0 1 0 2 0 3 0 1 0 2-1 2l0 1" id="svg_14" stroke-linecap="null" stroke-linejoin="null" stroke-dasharray="null" stroke-width="5" stroke="#000000" fill="none"/>
  </g>
</svg>
