<svg viewBox="-475 -350 950 700" xmlns="http://www.w3.org/2000/svg">
  <g stroke="#000" stroke-width="5" fill="#faa">
    <g id="tail" stroke-width="15" fill="none">
      <path d="M -325,-100 q -80,0 -80,-80 q 0,-60 60,-60 q 40,0 40,40 q 0,40 -40,40 q -60,0 -100,-100"/>
    </g>
    <g id="left-legs">
      <rect x="-220" y="205" width="85" height="120"/>
      <rect x="80" y="205" width="85" height="120"/>
    </g>
    <g id="body">
      <ellipse id="body" ry="275" rx="375" cy="0" cx="0"/>
    </g>
    <circle id="head" cx="275" cy="-100" r="175"/>
    <g id="ears">
      <path d="M 325,-280 h 90 l -50 60 z"/>
      <path d="M 230,-280 h -90 l 50 60 z"/>
    </g>
    <g id="snout">
      <circle cx="275" cy="-50" r="50"/>
      <path d="M 290,-70 v 40"/>
      <path d="M 260,-70 v 40"/>
    </g>
    <g id="right-legs">
      <rect x="-150" y="190" width="85" height="135"/>
      <rect x="150" y="190" width="85" height="135"/>
    </g>
    <g id="eyes" fill="#fff">
      <circle cx="235" cy="-170" r="50"/>
      <circle cx="235" cy="-170" r="10" fill="#000"/>
      <circle cx="320" cy="-170" r="50"/>
      <circle cx="320" cy="-170" r="10" fill="#000"/>
    </g>
  </g>
</svg>